<svg version="1.1" id="Layer_1" xmlns="http://www.w3.org/2000/svg" xmlns:xlink="http://www.w3.org/1999/xlink" x="0px" y="0px"
	 width="100%" viewBox="0 0 1024 1024" enable-background="new 0 0 1024 1024" xml:space="preserve">
<path fill="#000000" opacity="1.000000" stroke="none" 
	d="
M633.172546,181.666061 
	C666.281860,193.259064 697.028503,208.713852 725.179138,228.976151 
	C768.126343,259.888763 802.705872,298.401978 828.520142,344.698059 
	C846.660339,377.231262 859.286499,411.791473 866.652954,448.264313 
	C869.479980,462.261322 871.359924,476.390289 872.499634,490.667297 
	C874.015686,509.661194 873.753418,528.617920 872.183838,547.514160 
	C867.882446,599.297913 853.214661,648.023193 827.447998,693.240784 
	C812.452515,719.556152 794.448486,743.708191 773.138977,765.242737 
	C720.071960,818.870117 657.051086,854.423340 582.695862,869.009094 
	C553.838928,874.669739 524.610840,876.663269 495.302826,875.113647 
	C408.960144,870.548340 333.411896,839.107971 269.486237,781.077271 
	C219.537354,735.734497 184.850906,680.298706 166.127808,615.288696 
	C159.076324,590.804749 155.079468,565.799561 153.460693,540.248657 
	C148.499557,461.941162 167.550690,389.878784 210.151291,324.472046 
	C250.182205,263.010712 304.278320,217.696808 372.381378,189.383560 
	C400.995941,177.487320 430.523010,169.180954 461.103363,165.043533 
	C485.830414,161.698029 510.725464,160.858643 535.769531,162.476776 
	C569.014465,164.624786 601.308655,170.841934 633.172546,181.666061 
M382.287415,220.899139 
	C378.037231,222.804428 373.722473,224.578506 369.546753,226.635010 
	C320.892822,250.596649 279.856171,283.692932 247.610291,327.567627 
	C207.060974,382.740234 187.413040,444.859985 185.432343,512.871216 
	C184.909164,530.834961 186.637405,548.733521 189.277344,566.525940 
	C193.974670,598.184387 203.076263,628.538025 217.022537,657.312927 
	C237.428970,699.416870 265.543976,735.635193 301.487000,765.688171 
	C343.418091,800.747925 390.909210,824.303955 444.650360,835.005127 
	C450.002777,836.070984 453.782562,834.132629 456.605225,829.961731 
	C458.178223,827.637451 459.428711,825.032532 460.452881,822.408997 
	C468.988190,800.544556 472.405975,777.505737 475.588684,754.459045 
	C477.427765,741.141602 478.580902,727.726440 479.904999,714.341675 
	C481.245911,700.787048 482.547546,687.225952 483.625488,673.648560 
	C484.690613,660.232849 485.397156,646.788940 486.382477,633.366333 
	C486.716217,628.819946 484.665314,627.079468 480.452728,629.066956 
	C476.697021,630.838806 473.204956,633.159973 469.527069,635.107544 
	C437.330383,652.156372 403.143921,661.999756 366.709106,664.503845 
	C340.302338,666.318726 314.212982,665.099243 288.344177,659.494629 
	C284.452087,658.651306 279.792542,658.202759 279.071991,653.339478 
	C278.374939,648.634949 282.878326,647.075195 286.019348,645.125916 
	C309.001343,630.863586 330.698761,614.854004 351.327698,597.384338 
	C374.115143,578.086731 395.696564,557.529358 415.755493,535.393494 
	C417.756073,533.185791 420.420074,530.991272 418.181976,527.646851 
	C416.350616,524.910217 413.722046,526.722595 411.456268,527.170715 
	C386.937012,532.019897 362.231476,532.414124 337.434509,530.194519 
	C332.978149,529.795593 328.552246,528.907104 324.159332,528.013245 
	C322.033325,527.580566 320.016449,526.635498 319.415588,524.122375 
	C318.781952,521.472412 320.074463,519.599304 321.917236,518.021729 
	C322.921173,517.162231 324.101868,516.500732 325.234711,515.801575 
	C357.959869,495.603180 388.485504,472.557678 415.957153,445.579407 
	C425.228363,436.474731 434.586761,427.437714 442.900604,417.423492 
	C445.614929,414.153992 444.612885,411.968842 440.431824,411.423065 
	C439.120422,411.251892 437.741486,411.198792 436.441559,411.400970 
	C424.337646,413.283264 412.155701,412.281158 400.022858,412.189636 
	C392.596100,412.133606 385.105682,411.389557 377.818268,409.551147 
	C375.434052,408.949677 373.325439,407.908722 372.848267,405.253540 
	C372.381042,402.653687 373.876953,400.816956 375.795166,399.308167 
	C376.710144,398.588531 377.685089,397.944427 378.639771,397.275940 
	C393.550751,386.835571 407.423218,375.126007 420.498688,362.495697 
	C451.669250,332.386444 476.360474,297.321167 498.370880,260.218872 
	C501.342712,255.209351 504.402405,250.224945 507.808380,245.508347 
	C510.595703,241.648453 514.353394,241.703613 517.466614,245.238434 
	C518.557068,246.476532 519.423462,247.934814 520.261353,249.368988 
	C531.946228,269.370422 544.234131,288.961456 557.843933,307.744995 
	C583.167114,342.694916 612.358337,373.701416 648.102905,398.212433 
	C650.659241,399.965363 652.997437,401.823181 652.233032,405.460785 
	C651.434082,409.262848 648.080750,409.743073 645.278564,410.090759 
	C637.207397,411.092255 629.082397,412.160858 620.971313,412.220093 
	C609.340210,412.305054 597.660156,413.271790 586.053467,411.437012 
	C584.291504,411.158447 582.231201,411.019562 581.092163,412.924408 
	C579.778198,415.121643 581.760620,416.280731 582.909729,417.558777 
	C586.251160,421.274933 589.676025,424.916534 593.091370,428.565674 
	C625.159790,462.829437 661.091736,492.326569 701.456787,516.346985 
	C704.125793,517.935242 706.719177,519.615173 706.186951,523.239990 
	C705.635803,526.993896 702.342712,527.553528 699.473389,528.209351 
	C693.472717,529.580811 687.352600,530.039734 681.211548,530.546936 
	C659.712036,532.322876 638.378662,531.437256 617.108093,527.854004 
	C612.388733,527.058960 607.738098,524.955444 602.772583,525.679199 
	C602.487610,528.490051 604.228638,529.558167 605.389099,530.840881 
	C621.276794,548.401001 638.112671,565.024536 655.729980,580.831116 
	C677.693665,600.537231 700.490051,619.220581 725.245178,635.381409 
	C731.240784,639.295471 737.392700,642.969788 743.400391,646.865845 
	C745.526367,648.244568 747.477234,650.047546 747.126831,652.913025 
	C746.759094,655.920227 744.532715,657.412354 741.869202,658.325867 
	C740.768494,658.703308 739.653931,659.049011 738.528748,659.344604 
	C723.814087,663.210754 708.720947,664.492310 693.629333,665.151733 
	C675.667053,665.936646 657.710815,665.322144 639.898499,662.332825 
	C619.347595,658.883728 599.267944,653.870544 579.980530,645.790588 
	C568.741028,641.082275 557.884521,635.680969 547.290466,629.693298 
	C542.062561,626.738464 539.287415,628.310303 539.395874,634.166199 
	C539.447937,636.976868 540.147461,639.772400 540.248962,642.585876 
	C541.052063,664.843628 543.302734,686.987915 545.236694,709.161133 
	C547.618835,736.474365 550.661499,763.694885 556.458191,790.516418 
	C559.198059,803.193787 562.324097,815.827942 567.964783,827.624512 
	C571.200012,834.390564 575.290527,836.357849 582.419861,834.872314 
	C616.436829,827.784058 648.299622,815.237976 678.372742,797.809753 
	C716.799988,775.539917 749.495361,746.899963 776.410156,711.596985 
	C811.702454,665.305359 831.876709,612.944763 838.488464,555.343689 
	C840.724243,535.866089 841.434998,516.275391 839.923218,496.571777 
	C838.648743,479.962158 836.801575,463.504822 833.117737,447.290039 
	C822.828064,401.998962 803.882080,360.752472 775.698792,323.693695 
	C747.714783,286.896759 713.177124,257.749878 672.988281,235.365768 
	C635.519104,214.496368 595.369629,201.592361 552.555908,197.037811 
	C526.447876,194.260437 500.326263,194.080902 474.304291,196.598312 
	C442.668457,199.658829 412.204407,207.958023 382.287415,220.899139 
z"/>
</svg>